<?xml version="1.0" standalone="yes"?>
<svg xmlns="http://www.w3.org/2000/svg" width="500" height="500">
<path style="fill:#ffffff; stroke:none;" d="M0 0L0 500L500 500L500 0L0 0z"/>
<path style="fill:#a9adb6; stroke:none;" d="M395 72L395 73L402 74L395 72M388.667 73.3333L389.333 73.6667L388.667 73.3333z"/>
<path style="fill:#ff6442; stroke:none;" d="M391 73C391.657 79.3572 394.643 82.3427 401 83C402.142 73.9063 399.788 73.0009 391 73z"/>
<path style="fill:#a9adb6; stroke:none;" d="M385 74L386 75L385 74z"/>
<path style="fill:#676f7f; stroke:none;" d="M386 74L387 75L386 74z"/>
<path style="fill:#16223a; stroke:none;" d="M324 129L342 119L343 123L363 113C362.626 121.168 358.33 126.426 354 133C360.517 139.207 353.124 146.692 350 153C358.514 151.743 366.777 147.637 369.751 139C371.158 134.914 370.082 129.777 372.603 126.17C380.832 114.398 399.696 105.029 399.551 88.0579C399.515 83.8934 390.978 78.8573 389 74C370.445 78.397 363.285 92.3647 349.826 103.682C346.023 106.88 340.43 106.243 336.001 108.214C327.908 111.814 324.382 120.652 324 129z"/>
<path style="fill:#676f7f; stroke:none;" d="M389 74L390 75L389 74z"/>
<path style="fill:#a9adb6; stroke:none;" d="M382 75L383 76L382 75z"/>
<path style="fill:#676f7f; stroke:none;" d="M383 75L384 76L383 75z"/>
<path style="fill:#a9adb6; stroke:none;" d="M380 76L381 77L380 76z"/>
<path style="fill:#676f7f; stroke:none;" d="M381 76L382 77L381 76z"/>
<path style="fill:#a9adb6; stroke:none;" d="M378 77L379 78L378 77M390.667 77.3333L391.333 77.6667L390.667 77.3333M376 78L377 79L376 78z"/>
<path style="fill:#676f7f; stroke:none;" d="M390 78L391 79L390 78z"/>
<path style="fill:#ffffff; stroke:none;" d="M391 78L396 83L396 82L391 78z"/>
<path style="fill:#a9adb6; stroke:none;" d="M374 79L375 80L374 79z"/>
<path style="fill:#676f7f; stroke:none;" d="M375 79L376 80L375 79z"/>
<path style="fill:#a9adb6; stroke:none;" d="M392 79L393 80L392 79M401 79L401 82L402 82L401 79z"/>
<path style="fill:#676f7f; stroke:none;" d="M373 80L374 81L373 80M391 80L392 81L391 80z"/>
<path style="fill:#a9adb6; stroke:none;" d="M371 81L372 82L371 81M392 81L393 82L392 81M394 81L395 82L394 81z"/>
<path style="fill:#676f7f; stroke:none;" d="M370 82L371 83L370 82M393 82L394 83L393 82z"/>
<path style="fill:#a9adb6; stroke:none;" d="M396.333 82.6667L396.667 83.3333L396.333 82.6667z"/>
<path style="fill:#676f7f; stroke:none;" d="M369 83L370 84L369 83M395 83L396 84L395 83z"/>
<path style="fill:#a9adb6; stroke:none;" d="M367 84L368 85L367 84z"/>
<path style="fill:#676f7f; stroke:none;" d="M399 84L400 87L401 87L401 84L399 84z"/>
<path style="fill:#a9adb6; stroke:none;" d="M366 85L367 86L366 85z"/>
<path style="fill:#676f7f; stroke:none;" d="M378 85L379 86L378 85z"/>
<path style="fill:#a9adb6; stroke:none;" d="M379 85L379 86L383 86L379 85z"/>
<path style="fill:#676f7f; stroke:none;" d="M383 85L384 86L383 85M365 86L366 87L365 86z"/>
<path style="fill:#a9adb6; stroke:none;" d="M377 86L378 87L377 86z"/>
<path style="fill:#ffffff; stroke:none;" d="M378.109 86.7431C369.973 90.1794 375.614 103.524 383.956 99.642C392.636 95.6029 386.739 83.0981 378.109 86.7431z"/>
<path style="fill:#676f7f; stroke:none;" d="M385 86L386 87L385 86M364 87L365 88L364 87M375 87L376 88L375 87z"/>
<path style="fill:#a9adb6; stroke:none;" d="M379 87L380 88L379 87z"/>
<path style="fill:#ff6442; stroke:none;" d="M380.04 87.8511C372.865 89.9517 375.785 100.818 382.892 98.3526C389.016 96.2283 386.571 85.9389 380.04 87.8511z"/>
<path style="fill:#a9adb6; stroke:none;" d="M383 87L384 88L383 87M386 87L387 88L386 87M400 87L401 88L400 87z"/>
<path style="fill:#676f7f; stroke:none;" d="M363 88L364 89L363 88M374 88L375 89L374 88z"/>
<path style="fill:#a9adb6; stroke:none;" d="M377 88L378 89L377 88z"/>
<path style="fill:#676f7f; stroke:none;" d="M387 88L388 89L387 88M362 89L363 90L362 89z"/>
<path style="fill:#a9adb6; stroke:none;" d="M374 89L375 90L374 89M376 89L377 90L376 89z"/>
<path style="fill:#676f7f; stroke:none;" d="M399 89L400 90L399 89M361 90L362 91L361 90M373 90L374 91L373 90z"/>
<path style="fill:#a9adb6; stroke:none;" d="M386 90L387 91L386 90M388.333 90.6667L388.667 91.3333L388.333 90.6667M399.333 90.6667L399.667 91.3333L399.333 90.6667z"/>
<path style="fill:#676f7f; stroke:none;" d="M360 91L361 92L360 91z"/>
<path style="fill:#a9adb6; stroke:none;" d="M373 91L373 95L374 95L373 91M375 91L376 92L375 91z"/>
<path style="fill:#676f7f; stroke:none;" d="M359 92L360 93L359 92M358 93L359 94L358 93z"/>
<path style="fill:#a9adb6; stroke:none;" d="M398 93L399 94L398 93z"/>
<path style="fill:#676f7f; stroke:none;" d="M357 94L358 95L357 94z"/>
<path style="fill:#a9adb6; stroke:none;" d="M356 95L357 96L356 95z"/>
<path style="fill:#676f7f; stroke:none;" d="M373 95L374 96L373 95z"/>
<path style="fill:#a9adb6; stroke:none;" d="M375 95L376 96L375 95M386 95L387 96L386 95M388 95L389 96L388 95z"/>
<path style="fill:#676f7f; stroke:none;" d="M397 95L398 96L397 95z"/>
<path style="fill:#a9adb6; stroke:none;" d="M355 96L356 97L355 96z"/>
<path style="fill:#676f7f; stroke:none;" d="M388 96L389 97L388 96z"/>
<path style="fill:#a9adb6; stroke:none;" d="M397 96L398 97L397 96M354 97L355 98L354 97z"/>
<path style="fill:#676f7f; stroke:none;" d="M374 97L375 98L374 97z"/>
<path style="fill:#a9adb6; stroke:none;" d="M385 97L386 98L385 97M387 97L388 98L387 97z"/>
<path style="fill:#676f7f; stroke:none;" d="M396 97L397 98L396 97M354 98L355 99L354 98z"/>
<path style="fill:#a9adb6; stroke:none;" d="M375 98L376 99L375 98M378 98L379 99L378 98M386 98L387 99L386 98M396 98L397 99L396 98z"/>
<path style="fill:#676f7f; stroke:none;" d="M353 99L354 100L353 99M376 99L377 100L376 99z"/>
<path style="fill:#a9adb6; stroke:none;" d="M385 99L386 100L385 99z"/>
<path style="fill:#676f7f; stroke:none;" d="M395 99L396 100L395 99z"/>
<path style="fill:#a9adb6; stroke:none;" d="M352 100L353 101L352 100M378.667 100.333L379.333 100.667L378.667 100.333M382.667 100.333L383.333 100.667L382.667 100.333z"/>
<path style="fill:#676f7f; stroke:none;" d="M384 100L385 101L384 100z"/>
<path style="fill:#a9adb6; stroke:none;" d="M395 100L396 101L395 100M351 101L352 102L351 101z"/>
<path style="fill:#676f7f; stroke:none;" d="M394 101L395 102L394 101M351 102L352 103L351 102z"/>
<path style="fill:#a9adb6; stroke:none;" d="M350 103L351 104L350 103M393 103L394 104L393 103M349 104L350 105L349 104z"/>
<path style="fill:#676f7f; stroke:none;" d="M392 104L393 105L392 104z"/>
<path style="fill:#a9adb6; stroke:none;" d="M343 105L343 106L349 106L343 105M392 105L393 106L392 105M339 106L340 107L339 106z"/>
<path style="fill:#676f7f; stroke:none;" d="M340.667 106.333L341.333 106.667L340.667 106.333z"/>
<path style="fill:#a9adb6; stroke:none;" d="M391 106L392 107L391 106M336 107L337 108L336 107z"/>
<path style="fill:#676f7f; stroke:none;" d="M337 107L338 108L337 107M390 107L391 108L390 107z"/>
<path style="fill:#a9adb6; stroke:none;" d="M334 108L335 109L334 108z"/>
<path style="fill:#676f7f; stroke:none;" d="M333 109L334 110L333 109z"/>
<path style="fill:#a9adb6; stroke:none;" d="M389 109L390 110L389 109M331 110L332 111L331 110M388 110L389 111L388 110M330 111L331 112L330 111z"/>
<path style="fill:#676f7f; stroke:none;" d="M387 111L388 112L387 111z"/>
<path style="fill:#a9adb6; stroke:none;" d="M329 112L330 113L329 112z"/>
<path style="fill:#676f7f; stroke:none;" d="M386 112L387 113L386 112M359 113L360 114L359 113z"/>
<path style="fill:#a9adb6; stroke:none;" d="M360 113L360 114L362 118L363 118L360 113z"/>
<path style="fill:#676f7f; stroke:none;" d="M362 113L363 114L362 113M385 113L386 114L385 113M328 114L329 115L328 114z"/>
<path style="fill:#a9adb6; stroke:none;" d="M356 114L357 115L356 114M327 115L328 116L327 115M354 115L355 116L354 115M384 115L385 116L384 115M352 116L353 117L352 116M383 116L384 117L383 116M326 117L327 118L326 117z"/>
<path style="fill:#676f7f; stroke:none;" d="M350 117L351 118L350 117z"/>
<path style="fill:#ff6442; stroke:none;" d="M358 117C349.144 122.248 341.941 128.81 339 139C346.213 135.16 360.027 126.84 358 117z"/>
<path style="fill:#a9adb6; stroke:none;" d="M382 117L383 118L382 117M349 118L350 119L349 118M355 118L356 119L355 118z"/>
<path style="fill:#676f7f; stroke:none;" d="M362 118L363 119L362 118z"/>
<path style="fill:#a9adb6; stroke:none;" d="M381 118L382 119L381 118M325 119L326 120L325 119z"/>
<path style="fill:#676f7f; stroke:none;" d="M341 119L342 120L341 119z"/>
<path style="fill:#a9adb6; stroke:none;" d="M348 119L349 120L348 119M358 119L359 120L358 119z"/>
<path style="fill:#676f7f; stroke:none;" d="M379 119L380 120L379 119z"/>
<path style="fill:#a9adb6; stroke:none;" d="M270 120L270 121L278 121L270 120z"/>
<path style="fill:#676f7f; stroke:none;" d="M325 120L326 121L325 120M337 120L338 121L337 120z"/>
<path style="fill:#a9adb6; stroke:none;" d="M338.667 120.333L339.333 120.667L338.667 120.333M341 120L342 121L341 120M347 120L348 121L347 120M361 120L362 121L361 120z"/>
<path style="fill:#676f7f; stroke:none;" d="M378 120L379 121L378 120z"/>
<path style="fill:#a9adb6; stroke:none;" d="M262.667 121.333L263.333 121.667L262.667 121.333z"/>
<path style="fill:#ff6442; stroke:none;" d="M213 155C201.552 151.102 191.508 145.926 179 146.259C141.288 147.266 118 177.173 118 213C176.047 223.937 237.38 213.714 287 180.997C298.607 173.344 309.566 164.902 320 155.715C322.781 153.266 329.769 148.377 328.654 144.015C326.548 135.774 310.063 128.895 303 125.873C274.579 113.711 225.157 122.936 213 155z"/>
<path style="fill:#a9adb6; stroke:none;" d="M287 121L288 122L287 121z"/>
<path style="fill:#676f7f; stroke:none;" d="M334 121L335 122L334 121z"/>
<path style="fill:#a9adb6; stroke:none;" d="M335 121L336 122L335 121z"/>
<path style="fill:#676f7f; stroke:none;" d="M342 121L343 122L342 121z"/>
<path style="fill:#a9adb6; stroke:none;" d="M346 121L347 122L346 121z"/>
<path style="fill:#676f7f; stroke:none;" d="M361 121L362 122L361 121M377 121L378 122L377 121z"/>
<path style="fill:#a9adb6; stroke:none;" d="M257 122L258 123L257 122M292 122L293 123L292 122M324 122L325 123L324 122z"/>
<path style="fill:#676f7f; stroke:none;" d="M332 122L333 123L332 122z"/>
<path style="fill:#a9adb6; stroke:none;" d="M333 122L334 123L333 122M342 122L343 123L342 122M345 122L346 123L345 122z"/>
<path style="fill:#676f7f; stroke:none;" d="M376 122L377 123L376 122z"/>
<path style="fill:#a9adb6; stroke:none;" d="M253 123L254 124L253 123M296 123L297 124L296 123z"/>
<path style="fill:#676f7f; stroke:none;" d="M324 123L325 124L324 123z"/>
<path style="fill:#a9adb6; stroke:none;" d="M331 123L332 124L331 123M343.667 123.333L344.333 123.667L343.667 123.333z"/>
<path style="fill:#676f7f; stroke:none;" d="M360 123L361 124L360 123z"/>
<path style="fill:#a9adb6; stroke:none;" d="M375 123L376 124L375 123M250 124L251 125L250 124M299 124L300 125L299 124z"/>
<path style="fill:#676f7f; stroke:none;" d="M329 124L330 125L329 124M373 124L374 125L373 124z"/>
<path style="fill:#a9adb6; stroke:none;" d="M374 124L375 125L374 124M302 125L303 126L302 125M328 125L329 126L328 125M355 125L356 126L355 125z"/>
<path style="fill:#676f7f; stroke:none;" d="M359 125L360 126L359 125M372 125L373 126L372 125z"/>
<path style="fill:#a9adb6; stroke:none;" d="M245 126L246 127L245 126M304 126L305 127L304 126M323 126L323 131L324 131L323 126M327 126L328 127L327 126M358 126L359 127L358 126z"/>
<path style="fill:#676f7f; stroke:none;" d="M371 126L372 127L371 126z"/>
<path style="fill:#a9adb6; stroke:none;" d="M306 127L307 128L306 127M326 127L327 128L326 127M371 127L371 135L372 135L371 127M308 128L309 129L308 128M325 128L326 129L325 128z"/>
<path style="fill:#676f7f; stroke:none;" d="M357 128L358 129L357 128z"/>
<path style="fill:#a9adb6; stroke:none;" d="M239 129L240 130L239 129M310 129L311 130L310 129z"/>
<path style="fill:#676f7f; stroke:none;" d="M323 129L324 130L323 129z"/>
<path style="fill:#a9adb6; stroke:none;" d="M343 129L344 130L343 129M356 129L357 130L356 129M237 130L238 131L237 130M312 130L313 131L312 130M355 130L356 131L355 130M354 131L355 132L354 131M234 132L235 133L234 132M315 132L316 133L315 132M353 132L354 133L353 132z"/>
<path style="fill:#676f7f; stroke:none;" d="M354 133L355 134L354 133z"/>
<path style="fill:#a9adb6; stroke:none;" d="M340 134L341 135L340 134M346 134L347 135L346 134z"/>
<path style="fill:#676f7f; stroke:none;" d="M356 134L357 135L356 134z"/>
<path style="fill:#a9adb6; stroke:none;" d="M357 135L358 136L357 135M339 136L340 137L339 136M343 136L344 137L343 136z"/>
<path style="fill:#676f7f; stroke:none;" d="M357.333 136.667L357.667 137.333L357.333 136.667M370.333 136.667L370.667 137.333L370.333 136.667z"/>
<path style="fill:#a9adb6; stroke:none;" d="M227 137L228 138L227 137M322 137L323 138L322 137M341 137L342 138L341 137M323 138L324 139L323 138M338 138L339 139L338 138M370 138L371 139L370 138M356 139L357 140L356 139z"/>
<path style="fill:#676f7f; stroke:none;" d="M356 140L357 141L356 140z"/>
<path style="fill:#a9adb6; stroke:none;" d="M369 140L370 141L369 140M355 142L356 143L355 142M368 142L369 143L368 142z"/>
<path style="fill:#676f7f; stroke:none;" d="M355 143L356 144L355 143M367 143L368 144L367 143z"/>
<path style="fill:#a9adb6; stroke:none;" d="M330 145L331 146L330 145M354 145L355 146L354 145M366 145L367 146L366 145M174 146L174 147L177 147L174 146M182 146L182 147L187 147L182 146M329 146L330 147L329 146M365 146L366 147L365 146M167 147L168 148L167 147M192 147L193 148L192 147M328 147L329 148L328 147z"/>
<path style="fill:#676f7f; stroke:none;" d="M328 151L333 148L328 151M353 147L354 148L353 147z"/>
<path style="fill:#a9adb6; stroke:none;" d="M364 147L365 148L364 147M162.667 148.333L163.333 148.667L162.667 148.333M196 148L197 149L196 148M216 148L217 149L216 148M327 148L328 149L327 148z"/>
<path style="fill:#16223a; stroke:none;" d="M349 193C348.657 176.387 342.162 161.593 333 148C317.025 155.45 303.684 175.82 290 187.246C256.09 215.561 213.185 240.813 168 243.91C146.588 245.378 125.905 243.853 105 238.627C99.1783 237.171 87.4567 230.823 83.3634 237.073C65.7637 263.948 87.3959 299.507 116 305.192C135.151 308.998 157.487 306 177 306L298 306C323.075 306 354.734 311.122 378 300.11C408.241 285.796 419.034 242.688 398.471 216C386.015 199.834 368.463 194.536 349 193z"/>
<path style="fill:#a9adb6; stroke:none;" d="M333 148L334 149L333 148M352 148L353 149L352 148z"/>
<path style="fill:#676f7f; stroke:none;" d="M362 148L363 149L362 148z"/>
<path style="fill:#a9adb6; stroke:none;" d="M159 149L160 150L159 149M199 149L200 150L199 149M326 149L327 150L326 149M351 149L352 150L351 149M361 149L362 150L361 149M202 150L203 151L202 150z"/>
<path style="fill:#676f7f; stroke:none;" d="M334 150L335 151L334 150z"/>
<path style="fill:#a9adb6; stroke:none;" d="M359 150L360 151L359 150M154 151L155 152L154 151M204 151L205 152L204 151M214 151L215 152L214 151M327 151L328 152L327 151M335 151L336 152L335 151z"/>
<path style="fill:#676f7f; stroke:none;" d="M350 151L351 152L350 151M356 151L357 152L356 151z"/>
<path style="fill:#a9adb6; stroke:none;" d="M357 151L358 152L357 151M152 152L153 153L152 152M206 152L207 153L206 152M326 152L327 153L326 152z"/>
<path style="fill:#676f7f; stroke:none;" d="M349 152L348 154L349 152M353 152L354 153L353 152z"/>
<path style="fill:#a9adb6; stroke:none;" d="M354 152L355 153L354 152M150 153L151 154L150 153M208 153L209 154L208 153M325 153L326 154L325 153z"/>
<path style="fill:#676f7f; stroke:none;" d="M336 153L337 154L336 153z"/>
<path style="fill:#a9adb6; stroke:none;" d="M349.667 153.333L350.333 153.667L349.667 153.333M212 154L213 155L212 154M324 154L325 155L324 154M337 154L338 155L337 154M323 155L324 156L323 155M145 156L146 157L145 156M338 156L339 157L338 156M317 157L318 158L317 157M142 158L143 159L142 158M316 158L317 159L316 158z"/>
<path style="fill:#676f7f; stroke:none;" d="M339 158L340 159L339 158M340 160L341 161L340 160z"/>
<path style="fill:#a9adb6; stroke:none;" d="M341 161L342 162L341 161z"/>
<path style="fill:#676f7f; stroke:none;" d="M341 162L342 163L341 162z"/>
<path style="fill:#a9adb6; stroke:none;" d="M310 163L311 164L310 163M342 163L343 164L342 163z"/>
<path style="fill:#676f7f; stroke:none;" d="M342 164L343 165L342 164M343 166L344 167L343 166z"/>
<path style="fill:#a9adb6; stroke:none;" d="M305 167L306 168L305 167M304 168L305 169L304 168M344 168L345 169L344 168z"/>
<path style="fill:#676f7f; stroke:none;" d="M344 169L345 170L344 169z"/>
<path style="fill:#a9adb6; stroke:none;" d="M308 170L309 171L308 170M129 171L130 172L129 171M300 171L301 172L300 171M307 171L308 172L307 171z"/>
<path style="fill:#676f7f; stroke:none;" d="M345 171L346 172L345 171z"/>
<path style="fill:#a9adb6; stroke:none;" d="M306 172L307 173L306 172M297 173L298 174L297 173M305 173L306 174L305 173M346.333 173.667L346.667 174.333L346.333 173.667M127 174L128 175L127 174M304 174L305 175L304 174z"/>
<path style="fill:#676f7f; stroke:none;" d="M303 175L304 176L303 175M346 175L347 176L346 175z"/>
<path style="fill:#a9adb6; stroke:none;" d="M293 176L294 177L293 176z"/>
<path style="fill:#676f7f; stroke:none;" d="M302 176L303 177L302 176M301 177L302 178L301 177z"/>
<path style="fill:#a9adb6; stroke:none;" d="M347 177L348 178L347 177M290 178L291 179L290 178z"/>
<path style="fill:#676f7f; stroke:none;" d="M300 178L301 179L300 178M347.333 178.667L347.667 179.333L347.333 178.667z"/>
<path style="fill:#a9adb6; stroke:none;" d="M124 179L125 180L124 179z"/>
<path style="fill:#676f7f; stroke:none;" d="M299 179L300 180L299 179z"/>
<path style="fill:#a9adb6; stroke:none;" d="M287 180L288 181L287 180M123 181L124 182L123 181M296 181L297 182L296 181M284 182L285 183L284 182M295 182L296 183L295 182M348.333 182.667L348.667 183.333L348.333 182.667z"/>
<path style="fill:#676f7f; stroke:none;" d="M294 183L295 184L294 183M293 184L294 185L293 184M348 184L348 187L349 187L348 184z"/>
<path style="fill:#a9adb6; stroke:none;" d="M279 185L280 186L279 185z"/>
<path style="fill:#676f7f; stroke:none;" d="M292 185L293 186L292 185z"/>
<path style="fill:#a9adb6; stroke:none;" d="M121 186L122 187L121 186M289 187L290 188L289 187M274 188L275 189L274 188M288 188L289 189L288 188M120 189L121 190L120 189M272 189L273 190L272 189z"/>
<path style="fill:#676f7f; stroke:none;" d="M287 189L288 190L287 189M286 190L287 191L286 190z"/>
<path style="fill:#a9adb6; stroke:none;" d="M284 191L285 192L284 191M283 192L284 193L283 192M349 192L350 193L349 192M119 193L120 194L119 193z"/>
<path style="fill:#676f7f; stroke:none;" d="M282 193L283 194L282 193M353 193L353 194L356 194L353 193z"/>
<path style="fill:#a9adb6; stroke:none;" d="M356 193L356 194L359 194L356 193z"/>
<path style="fill:#676f7f; stroke:none;" d="M362 194L363 195L362 194z"/>
<path style="fill:#a9adb6; stroke:none;" d="M363.667 194.333L364.333 194.667L363.667 194.333M279 195L280 196L279 195z"/>
<path style="fill:#676f7f; stroke:none;" d="M367 195L368 196L367 195z"/>
<path style="fill:#a9adb6; stroke:none;" d="M368 195L369 196L368 195M258 196L259 197L258 196z"/>
<path style="fill:#676f7f; stroke:none;" d="M278 196L279 197L278 196M370.667 196.333L371.333 196.667L370.667 196.333z"/>
<path style="fill:#a9adb6; stroke:none;" d="M372 196L373 197L372 196M118 197L119 198L118 197M256 197L257 198L256 197z"/>
<path style="fill:#676f7f; stroke:none;" d="M277 197L278 198L277 197z"/>
<path style="fill:#a9adb6; stroke:none;" d="M374 197L375 198L374 197M254 198L255 199L254 198M275 198L276 199L275 198z"/>
<path style="fill:#676f7f; stroke:none;" d="M376 198L377 199L376 198M274 199L275 200L274 199M378 199L379 200L378 199z"/>
<path style="fill:#a9adb6; stroke:none;" d="M249 200L250 201L249 200z"/>
<path style="fill:#676f7f; stroke:none;" d="M273 200L274 201L273 200z"/>
<path style="fill:#a9adb6; stroke:none;" d="M380 200L381 201L380 200M247 201L248 202L247 201M271 201L272 202L271 201M382 201L383 202L382 201M244 202L245 203L244 202z"/>
<path style="fill:#676f7f; stroke:none;" d="M270 202L271 203L270 202M383 202L384 203L383 202z"/>
<path style="fill:#a9adb6; stroke:none;" d="M242 203L243 204L242 203z"/>
<path style="fill:#676f7f; stroke:none;" d="M269 203L270 204L269 203z"/>
<path style="fill:#a9adb6; stroke:none;" d="M385 203L386 204L385 203M239 204L240 205L239 204M267 204L268 205L267 204z"/>
<path style="fill:#676f7f; stroke:none;" d="M386 204L387 205L386 204z"/>
<path style="fill:#a9adb6; stroke:none;" d="M117 205L117 213L118 213L117 205M236 205L237 206L236 205z"/>
<path style="fill:#676f7f; stroke:none;" d="M266 205L267 206L266 205z"/>
<path style="fill:#a9adb6; stroke:none;" d="M388 205L389 206L388 205M264 206L265 207L264 206M389 206L390 207L389 206z"/>
<path style="fill:#676f7f; stroke:none;" d="M263 207L264 208L263 207M390 207L391 208L390 207z"/>
<path style="fill:#a9adb6; stroke:none;" d="M227 208L228 209L227 208M261 208L262 209L261 208z"/>
<path style="fill:#676f7f; stroke:none;" d="M391 208L392 209L391 208z"/>
<path style="fill:#a9adb6; stroke:none;" d="M223 209L224 210L223 209z"/>
<path style="fill:#676f7f; stroke:none;" d="M260 209L261 210L260 209M392 209L393 210L392 209z"/>
<path style="fill:#a9adb6; stroke:none;" d="M220 210L221 211L220 210M258 210L259 211L258 210z"/>
<path style="fill:#676f7f; stroke:none;" d="M393 210L394 211L393 210z"/>
<path style="fill:#a9adb6; stroke:none;" d="M215 211L216 212L215 211z"/>
<path style="fill:#676f7f; stroke:none;" d="M257 211L258 212L257 211M394 211L395 212L394 211z"/>
<path style="fill:#a9adb6; stroke:none;" d="M211 212L212 213L211 212M255 212L256 213L255 212z"/>
<path style="fill:#676f7f; stroke:none;" d="M395 212L396 213L395 212z"/>
<path style="fill:#a9adb6; stroke:none;" d="M120 213L121 214L120 213M206 213L207 214L206 213z"/>
<path style="fill:#676f7f; stroke:none;" d="M254 213L255 214L254 213M396 213L397 214L396 213z"/>
<path style="fill:#a9adb6; stroke:none;" d="M126 214L127 215L126 214M200.667 214.333L201.333 214.667L200.667 214.333z"/>
<path style="fill:#676f7f; stroke:none;" d="M252 214L253 215L252 214z"/>
<path style="fill:#a9adb6; stroke:none;" d="M397 214L398 215L397 214M133.667 215.333L134.333 215.667L133.667 215.333M193.667 215.333L194.333 215.667L193.667 215.333M250 215L251 216L250 215M398 215L399 216L398 215M143 216L143 217L146 217L143 216M183 216L183 217L186 217L183 216M248 216L249 217L248 216M158 217L158 218L171 218L158 217z"/>
<path style="fill:#676f7f; stroke:none;" d="M247 217L248 218L247 217M399 217L400 218L399 217M245 218L246 219L245 218z"/>
<path style="fill:#a9adb6; stroke:none;" d="M400 218L401 219L400 218M243 219L244 220L243 219M241 220L242 221L241 220M401 220L402 221L401 220M239 221L240 222L239 221M237 222L238 223L237 222z"/>
<path style="fill:#676f7f; stroke:none;" d="M402 222L403 223L402 222z"/>
<path style="fill:#a9adb6; stroke:none;" d="M235 223L236 224L235 223M233 224L234 225L233 224z"/>
<path style="fill:#676f7f; stroke:none;" d="M403 224L404 225L403 224z"/>
<path style="fill:#a9adb6; stroke:none;" d="M231 225L232 226L231 225M229 226L230 227L229 226z"/>
<path style="fill:#676f7f; stroke:none;" d="M404 226L405 227L404 226z"/>
<path style="fill:#a9adb6; stroke:none;" d="M226 227L227 228L226 227z"/>
<path style="fill:#676f7f; stroke:none;" d="M227 227L228 228L227 227z"/>
<path style="fill:#a9adb6; stroke:none;" d="M224 228L225 229L224 228z"/>
<path style="fill:#676f7f; stroke:none;" d="M225 228L226 229L225 228z"/>
<path style="fill:#a9adb6; stroke:none;" d="M405 228L406 229L405 228z"/>
<path style="fill:#676f7f; stroke:none;" d="M222 229L223 230L222 229M405 229L406 230L405 229z"/>
<path style="fill:#a9adb6; stroke:none;" d="M219 230L220 231L219 230z"/>
<path style="fill:#676f7f; stroke:none;" d="M220 230L221 231L220 230z"/>
<path style="fill:#a9adb6; stroke:none;" d="M216 231L217 232L216 231z"/>
<path style="fill:#676f7f; stroke:none;" d="M217 231L218 232L217 231z"/>
<path style="fill:#a9adb6; stroke:none;" d="M406 231L407 232L406 231M214 232L215 233L214 232z"/>
<path style="fill:#676f7f; stroke:none;" d="M406 232L407 233L406 232M85 233L86 234L85 233M87 233L88 234L87 233z"/>
<path style="fill:#a9adb6; stroke:none;" d="M88 233L89 234L88 233M211 233L212 234L211 233z"/>
<path style="fill:#676f7f; stroke:none;" d="M212 233L213 234L212 233z"/>
<path style="fill:#a9adb6; stroke:none;" d="M84 234L85 235L84 234z"/>
<path style="fill:#676f7f; stroke:none;" d="M90 234L91 235L90 234z"/>
<path style="fill:#a9adb6; stroke:none;" d="M91 234L92 235L91 234M208 234L209 235L208 234z"/>
<path style="fill:#676f7f; stroke:none;" d="M209 234L210 235L209 234z"/>
<path style="fill:#a9adb6; stroke:none;" d="M407 234L408 235L407 234z"/>
<path style="fill:#676f7f; stroke:none;" d="M93 235L94 236L93 235z"/>
<path style="fill:#a9adb6; stroke:none;" d="M94 235L95 236L94 235M205 235L206 236L205 235z"/>
<path style="fill:#676f7f; stroke:none;" d="M206 235L207 236L206 235M407 235L408 236L407 235M83 236L84 237L83 236M96 236L97 237L96 236z"/>
<path style="fill:#a9adb6; stroke:none;" d="M97.6667 236.333L98.3333 236.667L97.6667 236.333M202 236L203 237L202 236z"/>
<path style="fill:#676f7f; stroke:none;" d="M203 236L204 237L203 236z"/>
<path style="fill:#a9adb6; stroke:none;" d="M82 237L83 238L82 237z"/>
<path style="fill:#676f7f; stroke:none;" d="M100 237L101 238L100 237z"/>
<path style="fill:#a9adb6; stroke:none;" d="M101 237L102 238L101 237M198 237L199 238L198 237z"/>
<path style="fill:#676f7f; stroke:none;" d="M199.667 237.333L200.333 237.667L199.667 237.333M82 238L83 239L82 238M104 238L105 239L104 238z"/>
<path style="fill:#a9adb6; stroke:none;" d="M105 238L106 239L105 238M195 238L196 239L195 238z"/>
<path style="fill:#676f7f; stroke:none;" d="M196 238L197 239L196 238z"/>
<path style="fill:#a9adb6; stroke:none;" d="M408.333 238.667L408.667 239.333L408.333 238.667z"/>
<path style="fill:#676f7f; stroke:none;" d="M108 239L109 240L108 239z"/>
<path style="fill:#a9adb6; stroke:none;" d="M109.667 239.333L110.333 239.667L109.667 239.333M190.667 239.333L191.333 239.667L190.667 239.333z"/>
<path style="fill:#676f7f; stroke:none;" d="M192 239L193 240L192 239M81 240L82 241L81 240M112.667 240.333L113.333 240.667L112.667 240.333z"/>
<path style="fill:#a9adb6; stroke:none;" d="M114 240L115 241L114 240M186.667 240.333L187.333 240.667L186.667 240.333z"/>
<path style="fill:#676f7f; stroke:none;" d="M188 240L189 241L188 240M408.333 240.667L408.667 241.333L408.333 240.667M117 241L118 242L117 241z"/>
<path style="fill:#a9adb6; stroke:none;" d="M118.667 241.333L119.333 241.667L118.667 241.333M181.667 241.333L182.333 241.667L181.667 241.333z"/>
<path style="fill:#676f7f; stroke:none;" d="M183 241L184 242L183 241z"/>
<path style="fill:#a9adb6; stroke:none;" d="M80 242L81 243L80 242z"/>
<path style="fill:#676f7f; stroke:none;" d="M123.667 242.333L124.333 242.667L123.667 242.333z"/>
<path style="fill:#a9adb6; stroke:none;" d="M125.667 242.333L126.333 242.667L125.667 242.333M175.667 242.333L176.333 242.667L175.667 242.333z"/>
<path style="fill:#676f7f; stroke:none;" d="M177.667 242.333L178.333 242.667L177.667 242.333M80 243L81 244L80 243M131 243L131 244L134 244L131 243z"/>
<path style="fill:#a9adb6; stroke:none;" d="M134 243L134 244L138 244L134 243M164 243L164 244L168 244L164 243z"/>
<path style="fill:#676f7f; stroke:none;" d="M168 243L168 244L172 244L168 243M142 244L142 245L154 245L142 244z"/>
<path style="fill:#a9adb6; stroke:none;" d="M79 245L80 246L79 245z"/>
<path style="fill:#676f7f; stroke:none;" d="M79 246L80 247L79 246z"/>
<path style="fill:#a9adb6; stroke:none;" d="M78.3333 248.667L78.6667 249.333L78.3333 248.667z"/>
<path style="fill:#676f7f; stroke:none;" d="M78.3333 250.667L78.6667 251.333L78.3333 250.667z"/>
<path style="fill:#a9adb6; stroke:none;" d="M77 255L77 264L78 264L77 255z"/>
<path style="fill:#676f7f; stroke:none;" d="M408.333 257.667L408.667 258.333L408.333 257.667z"/>
<path style="fill:#a9adb6; stroke:none;" d="M408.333 259.667L408.667 260.333L408.333 259.667z"/>
<path style="fill:#676f7f; stroke:none;" d="M407.333 262.667L407.667 263.333L407.333 262.667z"/>
<path style="fill:#a9adb6; stroke:none;" d="M407 264L408 265L407 264z"/>
<path style="fill:#676f7f; stroke:none;" d="M406 266L407 267L406 266z"/>
<path style="fill:#a9adb6; stroke:none;" d="M406 267L407 268L406 267z"/>
<path style="fill:#676f7f; stroke:none;" d="M78 268L79 269L78 268z"/>
<path style="fill:#a9adb6; stroke:none;" d="M78.3333 269.667L78.6667 270.333L78.3333 269.667z"/>
<path style="fill:#676f7f; stroke:none;" d="M405 269L406 270L405 269z"/>
<path style="fill:#a9adb6; stroke:none;" d="M405 270L406 271L405 270z"/>
<path style="fill:#676f7f; stroke:none;" d="M404 271L405 272L404 271M79 272L80 273L79 272z"/>
<path style="fill:#a9adb6; stroke:none;" d="M404 272L405 273L404 272M79 273L80 274L79 273M403 274L404 275L403 274z"/>
<path style="fill:#676f7f; stroke:none;" d="M80 275L81 276L80 275M402 275L403 276L402 275z"/>
<path style="fill:#a9adb6; stroke:none;" d="M80 276L81 277L80 276M402 276L403 277L402 276z"/>
<path style="fill:#676f7f; stroke:none;" d="M401 277L402 278L401 277z"/>
<path style="fill:#a9adb6; stroke:none;" d="M81 278L82 279L81 278M401 278L402 279L401 278z"/>
<path style="fill:#676f7f; stroke:none;" d="M400 279L401 280L400 279z"/>
<path style="fill:#a9adb6; stroke:none;" d="M82 280L83 281L82 280M399 281L400 282L399 281M83 282L84 283L83 282z"/>
<path style="fill:#676f7f; stroke:none;" d="M398 282L399 283L398 282M84 283L85 284L84 283z"/>
<path style="fill:#a9adb6; stroke:none;" d="M84 284L85 285L84 284M397 284L398 285L397 284z"/>
<path style="fill:#676f7f; stroke:none;" d="M85 285L86 286L85 285z"/>
<path style="fill:#a9adb6; stroke:none;" d="M396 285L397 286L396 285z"/>
<path style="fill:#676f7f; stroke:none;" d="M395 286L396 287L395 286M394 287L395 288L394 287z"/>
<path style="fill:#a9adb6; stroke:none;" d="M87 288L88 289L87 288z"/>
<path style="fill:#676f7f; stroke:none;" d="M393 288L394 289L393 288M88 289L89 290L88 289M392 289L393 290L392 289M89 290L90 291L89 290M391 290L392 291L391 290M390 291L391 292L390 291M389 292L390 293L389 292M92 293L93 294L92 293z"/>
<path style="fill:#a9adb6; stroke:none;" d="M388 293L389 294L388 293z"/>
<path style="fill:#676f7f; stroke:none;" d="M93 294L94 295L93 294z"/>
<path style="fill:#a9adb6; stroke:none;" d="M387 294L388 295L387 294M94 295L95 296L94 295z"/>
<path style="fill:#676f7f; stroke:none;" d="M385 295L386 296L385 295M96 296L97 297L96 296z"/>
<path style="fill:#a9adb6; stroke:none;" d="M384 296L385 297L384 296M97 297L98 298L97 297z"/>
<path style="fill:#676f7f; stroke:none;" d="M382 297L383 298L382 297M99 298L100 299L99 298z"/>
<path style="fill:#a9adb6; stroke:none;" d="M381 298L382 299L381 298M100 299L101 300L100 299M379 299L380 300L379 299z"/>
<path style="fill:#676f7f; stroke:none;" d="M102 300L103 301L102 300z"/>
<path style="fill:#a9adb6; stroke:none;" d="M377 300L378 301L377 300z"/>
<path style="fill:#676f7f; stroke:none;" d="M104 301L105 302L104 301M374 301L375 302L374 301z"/>
<path style="fill:#a9adb6; stroke:none;" d="M375 301L376 302L375 301z"/>
<path style="fill:#676f7f; stroke:none;" d="M106 302L107 303L106 302z"/>
<path style="fill:#a9adb6; stroke:none;" d="M372 302L373 303L372 302M108 303L109 304L108 303z"/>
<path style="fill:#676f7f; stroke:none;" d="M109 303L110 304L109 303M369 303L370 304L369 303z"/>
<path style="fill:#a9adb6; stroke:none;" d="M370 303L371 304L370 303M111 304L112 305L111 304z"/>
<path style="fill:#676f7f; stroke:none;" d="M112 304L113 305L112 304M364.667 304.333L365.333 304.667L364.667 304.333z"/>
<path style="fill:#a9adb6; stroke:none;" d="M366 304L367 305L366 304M115 305L116 306L115 305z"/>
<path style="fill:#676f7f; stroke:none;" d="M116.667 305.333L117.333 305.667L116.667 305.333M357 305L357 306L360 306L357 305z"/>
<path style="fill:#a9adb6; stroke:none;" d="M360.667 305.333L361.333 305.667L360.667 305.333M36 313L37 314L36 313z"/>
<path style="fill:#676f7f; stroke:none;" d="M37 313L38 314L37 313z"/>
<path style="fill:#16223a; stroke:none;" d="M62 342L50 342L50 351L44 351L44 321L50 321L50 330L62 330C62 325.599 63.1848 318.999 59.5664 315.703C51.9964 308.807 32.2209 311.484 32.0046 323C31.8601 330.696 28.6948 349.448 33.7423 355.581C38.1623 360.952 55.7921 360.906 60.2577 355.57C63.0771 352.202 62 346.084 62 342z"/>
<path style="fill:#676f7f; stroke:none;" d="M55.6667 313.333L56.3333 313.667L55.6667 313.333z"/>
<path style="fill:#a9adb6; stroke:none;" d="M57 313L58 314L57 313z"/>
<path style="fill:#16223a; stroke:none;" d="M77 313L77 359L104 359L104 350L89 350L89 313L77 313z"/>
<path style="fill:#676f7f; stroke:none;" d="M89 313L89 350L90 350C90 339.351 93.1113 322.798 89 313z"/>
<path style="fill:#a9adb6; stroke:none;" d="M122 313L123 314L122 313z"/>
<path style="fill:#676f7f; stroke:none;" d="M123 313L124 314L123 313z"/>
<path style="fill:#16223a; stroke:none;" d="M124.004 313.573C114.807 316.248 117 327.602 117 335C117 340.67 115.575 348.77 118.318 353.942C121.884 360.666 135.709 360.227 141.985 358.196C150.664 355.387 148 343.154 148 336C148 330.625 149.621 321.94 146.821 317.144C143.426 311.329 129.62 311.939 124.004 313.573z"/>
<path style="fill:#676f7f; stroke:none;" d="M141.667 313.333L142.333 313.667L141.667 313.333z"/>
<path style="fill:#a9adb6; stroke:none;" d="M143 313L144 314L143 313z"/>
<path style="fill:#16223a; stroke:none;" d="M164 313C164 324.479 160.386 343.417 165.514 353.892C169.203 361.427 189.521 361.402 194.062 354.775C200.204 345.811 196 323.593 196 313L184 313C184 322.333 184.063 331.668 183.999 341C183.98 343.863 184.2 349.364 180 349.364C175.8 349.364 176.02 343.863 176.001 341C175.937 331.668 176 322.333 176 313L164 313z"/>
<path style="fill:#676f7f; stroke:none;" d="M176 313L176 349L177 349C177 338.613 180.011 322.56 176 313M183 313L183 349L184 349C184 338.613 187.011 322.56 183 313z"/>
<path style="fill:#a9adb6; stroke:none;" d="M212 313L212 359L213 359C213 345.997 217.01 324.939 212 313z"/>
<path style="fill:#16223a; stroke:none;" d="M213 313L213 359C220.658 359 234.026 361.506 240.606 356.86C247.44 352.035 244.038 332.44 243.999 325C243.982 321.757 244.182 318.086 241.566 315.703C235.508 310.184 220.606 313 213 313z"/>
<path style="fill:#676f7f; stroke:none;" d="M237.667 313.333L238.333 313.667L237.667 313.333z"/>
<path style="fill:#a9adb6; stroke:none;" d="M264 313L265 314L264 313z"/>
<path style="fill:#676f7f; stroke:none;" d="M265.667 313.333L266.333 313.667L265.667 313.333z"/>
<path style="fill:#16223a; stroke:none;" d="M291 334L275 334L275 341C281.396 344.528 278.428 350.51 272 351L272 321C276.892 321.373 278.627 323.108 279 328L291 328C290.916 323.918 290.941 318.506 287.686 315.514C282.887 311.102 266.018 311.224 261.742 316.419C256.746 322.49 259.776 341.378 260.015 349C260.375 360.446 280.118 362.877 287.686 356.297C292.967 351.705 291 340.232 291 334z"/>
<path style="fill:#676f7f; stroke:none;" d="M284 313L285 314L284 313z"/>
<path style="fill:#a9adb6; stroke:none;" d="M285 313L286 314L285 313z"/>
<path style="fill:#16223a; stroke:none;" d="M306 313L306 359L334 359L334 350L318 350L318 340L331 340L331 332C326.933 332 310.165 328.807 320.318 322.028C323.483 319.914 329.36 321 333 321L333 313L306 313z"/>
<path style="fill:#676f7f; stroke:none;" d="M333 313L333 321L319 321L319 322L334 322L333 313M348 313L348 359L349 359C349 345.997 353.01 324.939 348 313z"/>
<path style="fill:#16223a; stroke:none;" d="M349 313L349 359L376 359L376 350L361 350L361 340L374 340L374 332L361 332L361 321L376 321L376 313L349 313z"/>
<path style="fill:#a9adb6; stroke:none;" d="M390 313L390 359L391 359C391 345.997 395.01 324.939 390 313z"/>
<path style="fill:#16223a; stroke:none;" d="M391 313L391 359L403 359L403 313L391 313z"/>
<path style="fill:#a9adb6; stroke:none;" d="M403 313L403 334L404 334L403 313M411 313L412 314L411 313z"/>
<path style="fill:#16223a; stroke:none;" d="M425 359L416.988 335L425 313C421.506 313 415.635 311.891 412.649 314.028C401.945 321.687 402.324 350.192 412.702 357.972C415.589 360.136 421.578 359 425 359z"/>
<path style="fill:#a9adb6; stroke:none;" d="M443 313L444 314L443 313z"/>
<path style="fill:#676f7f; stroke:none;" d="M444 313L445 314L444 313z"/>
<path style="fill:#16223a; stroke:none;" d="M457 350L451 350L451 345L439 345C439.002 348.744 438.371 353.508 441.434 356.297C447.116 361.474 465.141 360.8 468.258 352.981C470.441 347.504 470.211 335.482 463.945 332.894C460.18 331.338 453.542 333.581 451.032 329.682C447.722 324.54 455.656 318.845 457 327L469 327C468.966 322.947 469.036 318.439 465.721 315.514C458.985 309.57 440.725 311.485 438.634 321.001C437.59 325.751 437.209 334.705 441.433 338.142C448.929 344.243 456.951 336.256 457 350z"/>
<path style="fill:#676f7f; stroke:none;" d="M462 313L463 314L462 313z"/>
<path style="fill:#a9adb6; stroke:none;" d="M463 313L464 314L463 313M34 314L35 315L34 314z"/>
<path style="fill:#676f7f; stroke:none;" d="M58 314L59 315L58 314z"/>
<path style="fill:#a9adb6; stroke:none;" d="M59 314L60 315L59 314z"/>
<path style="fill:#676f7f; stroke:none;" d="M120 314L121 315L120 314z"/>
<path style="fill:#a9adb6; stroke:none;" d="M145 314L146 315L145 314z"/>
<path style="fill:#676f7f; stroke:none;" d="M240 314L241 315L240 314M263 314L264 315L263 314z"/>
<path style="fill:#a9adb6; stroke:none;" d="M287 314L288 315L287 314z"/>
<path style="fill:#676f7f; stroke:none;" d="M411 314L412 315L411 314M424 314L425 315L424 314z"/>
<path style="fill:#a9adb6; stroke:none;" d="M441 314L442 315L441 314M465 314L466 315L465 314M33 315L34 316L33 315M60 315L61 316L60 315z"/>
<path style="fill:#676f7f; stroke:none;" d="M119 315L120 316L119 315z"/>
<path style="fill:#a9adb6; stroke:none;" d="M146 315L147 316L146 315M261 315L262 316L261 315z"/>
<path style="fill:#676f7f; stroke:none;" d="M288 315L289 316L288 315z"/>
<path style="fill:#a9adb6; stroke:none;" d="M424 315L425 316L424 315z"/>
<path style="fill:#676f7f; stroke:none;" d="M440 315L441 316L440 315M466 315L467 316L466 315z"/>
<path style="fill:#a9adb6; stroke:none;" d="M32 316L33 317L32 316z"/>
<path style="fill:#676f7f; stroke:none;" d="M118 316L119 317L118 316z"/>
<path style="fill:#a9adb6; stroke:none;" d="M147 316L148 317L147 316M289 316L290 317L289 316z"/>
<path style="fill:#676f7f; stroke:none;" d="M410 316L411 317L410 316z"/>
<path style="fill:#a9adb6; stroke:none;" d="M439 316L440 317L439 316z"/>
<path style="fill:#676f7f; stroke:none;" d="M467 316L468 317L467 316M61 317L62 318L61 317z"/>
<path style="fill:#a9adb6; stroke:none;" d="M117 317L118 318L117 317z"/>
<path style="fill:#676f7f; stroke:none;" d="M147 317L148 318L147 317z"/>
<path style="fill:#a9adb6; stroke:none;" d="M243 317L244 318L243 317z"/>
<path style="fill:#676f7f; stroke:none;" d="M260 317L261 318L260 317z"/>
<path style="fill:#a9adb6; stroke:none;" d="M423 317L424 318L423 317M31.3333 318.667L31.6667 319.333L31.3333 318.667z"/>
<path style="fill:#676f7f; stroke:none;" d="M117 318L118 319L117 318z"/>
<path style="fill:#a9adb6; stroke:none;" d="M148.333 318.667L148.667 319.333L148.333 318.667M290 318L291 319L290 318M409 318L410 319L409 318M438 318L439 319L438 318M468 318L469 319L468 318M62 319L62 322L63 322L62 319M259 319L259 353L260 353L259 319z"/>
<path style="fill:#676f7f; stroke:none;" d="M290 319L290 322L291 322L290 319M409 319L410 320L409 319M422 319L423 320L422 319M438 319L438 322L439 322L438 319M468 319L469 320L468 319M31 320L31 352L32 352L31 320M148 320L148 352L149 352L148 320z"/>
<path style="fill:#a9adb6; stroke:none;" d="M244 320L244 352L245 352L244 320M422 320L423 321L422 320M44 321L45 322L44 321z"/>
<path style="fill:#676f7f; stroke:none;" d="M49 321L50 322L49 321M131 321L131 322L134 322L131 321z"/>
<path style="fill:#a9adb6; stroke:none;" d="M225 321L226 322L225 321z"/>
<path style="fill:#ffffff; stroke:none;" d="M225 350L231 350L231 321C220.989 321.78 225 342.35 225 350z"/>
<path style="fill:#676f7f; stroke:none;" d="M231 321L232 322L231 321M272 321L273 322L272 321z"/>
<path style="fill:#a9adb6; stroke:none;" d="M277 321L278 322L277 321z"/>
<path style="fill:#676f7f; stroke:none;" d="M361 321L361 322L376 322L361 321z"/>
<path style="fill:#a9adb6; stroke:none;" d="M408 321L409 322L408 321z"/>
<path style="fill:#676f7f; stroke:none;" d="M453.667 321.333L454.333 321.667L453.667 321.333M62 322L62 330L63 330L62 322M129 322L130 323L129 322z"/>
<path style="fill:#ffffff; stroke:none;" d="M130 322L130 350C139.456 349.263 139.456 322.737 130 322z"/>
<path style="fill:#a9adb6; stroke:none;" d="M135 322L136 323L135 322M231 322L231 350L225 350L225 351C235.109 350.668 234.146 329.497 231 322z"/>
<path style="fill:#676f7f; stroke:none;" d="M278 322C278.272 330.296 284.263 329 291 329L291 328L279 328L278 322M318 322L318 331L319 331L318 322M408 322L409 323L408 322z"/>
<path style="fill:#a9adb6; stroke:none;" d="M421 322L422 323L421 322z"/>
<path style="fill:#676f7f; stroke:none;" d="M456 322L456 327L457 327L456 322z"/>
<path style="fill:#a9adb6; stroke:none;" d="M129 323L129 349L130 349L129 323M407 323L408 324L407 323z"/>
<path style="fill:#676f7f; stroke:none;" d="M450 323L450 331L451 331L450 323M407 324L408 325L407 324M420 324L421 325L420 324z"/>
<path style="fill:#a9adb6; stroke:none;" d="M420 325L421 326L420 325M406 326L407 327L406 326z"/>
<path style="fill:#676f7f; stroke:none;" d="M406 327L407 328L406 327z"/>
<path style="fill:#a9adb6; stroke:none;" d="M419 327L420 328L419 327M457 327L457 328L469 328L457 327M278 328L279 329L278 328M405 329L406 330L405 329z"/>
<path style="fill:#676f7f; stroke:none;" d="M418 329L419 330L418 329z"/>
<path style="fill:#a9adb6; stroke:none;" d="M418 330L419 331L418 330z"/>
<path style="fill:#676f7f; stroke:none;" d="M319 331L319 332L331 332L331 340L332 340L332 331L319 331M361 331L361 332L374 332L361 331M438 331L438 334L439 334L438 331z"/>
<path style="fill:#a9adb6; stroke:none;" d="M451.667 331.333L452.333 331.667L451.667 331.333z"/>
<path style="fill:#676f7f; stroke:none;" d="M404 332L405 333L404 332M417 332L418 333L417 332M463 332L464 333L463 332z"/>
<path style="fill:#a9adb6; stroke:none;" d="M464 332L465 333L464 332M275 333L275 334L291 334L275 333M466 333L467 334L466 333M274 334L274 341L275 341L274 334z"/>
<path style="fill:#676f7f; stroke:none;" d="M403 334L403 337L404 337L403 334M416 334L417 335L416 334z"/>
<path style="fill:#a9adb6; stroke:none;" d="M438 334L439 335L438 334M467 334L468 335L467 334M416 335L417 336L416 335z"/>
<path style="fill:#676f7f; stroke:none;" d="M416 336L417 337L416 336M439 336L440 337L439 336z"/>
<path style="fill:#a9adb6; stroke:none;" d="M468 336L469 337L468 336M403 337L403 359L404 359L403 337z"/>
<path style="fill:#676f7f; stroke:none;" d="M468 337L469 338L468 337M404 338L405 339L404 338M417 338L418 339L417 338z"/>
<path style="fill:#a9adb6; stroke:none;" d="M442 339L443 340L442 339z"/>
<path style="fill:#676f7f; stroke:none;" d="M443 339L444 340L443 339M318 340L318 350L319 350L318 340z"/>
<path style="fill:#a9adb6; stroke:none;" d="M319 340L319 341L331 341L319 340M361 340L361 341L374 341L361 340M418 340L419 341L418 340M446 340L446 341L456 341L446 340M275 341L275 342L278 342L275 341M405 341L406 342L405 341z"/>
<path style="fill:#676f7f; stroke:none;" d="M418 341L419 342L418 341z"/>
<path style="fill:#a9adb6; stroke:none;" d="M456 341L456 349L457 349L456 341M62 342L63 343L62 342z"/>
<path style="fill:#676f7f; stroke:none;" d="M278 342L278 350L279 350L278 342M62 343L62 350L63 350L62 343M406 343L407 344L406 343z"/>
<path style="fill:#a9adb6; stroke:none;" d="M419 343L420 344L419 343M406 344L407 345L406 344M438 344L438 345L451 345L438 344M420 345L421 346L420 345z"/>
<path style="fill:#676f7f; stroke:none;" d="M438 345L438 352L439 352L438 345M407 346L408 347L407 346M420 346L421 347L420 346z"/>
<path style="fill:#a9adb6; stroke:none;" d="M407 347L408 348L407 347M421 348L422 349L421 348z"/>
<path style="fill:#676f7f; stroke:none;" d="M129 349L130 350L129 349z"/>
<path style="fill:#a9adb6; stroke:none;" d="M135 349L136 350L135 349M177 349L178 350L177 349M182 349L183 350L182 349z"/>
<path style="fill:#676f7f; stroke:none;" d="M408 349L409 350L408 349M421 349L422 350L421 349z"/>
<path style="fill:#a9adb6; stroke:none;" d="M451 349L452 350L451 349z"/>
<path style="fill:#676f7f; stroke:none;" d="M456 349L457 350L456 349M44 350L45 351L44 350z"/>
<path style="fill:#a9adb6; stroke:none;" d="M45 350L45 351L49 351L45 350z"/>
<path style="fill:#676f7f; stroke:none;" d="M49 350L50 351L49 350z"/>
<path style="fill:#a9adb6; stroke:none;" d="M62 350L62 353L63 353L62 350z"/>
<path style="fill:#676f7f; stroke:none;" d="M164 350L164 353L165 353L164 350M231 350L232 351L231 350M272 350L273 351L272 350z"/>
<path style="fill:#a9adb6; stroke:none;" d="M273 350L273 351L278 351L273 350z"/>
<path style="fill:#676f7f; stroke:none;" d="M290 350L290 353L291 353L290 350z"/>
<path style="fill:#a9adb6; stroke:none;" d="M334 350L334 359L335 359L334 350z"/>
<path style="fill:#676f7f; stroke:none;" d="M376 350L376 359L377 359L376 350z"/>
<path style="fill:#a9adb6; stroke:none;" d="M408 350L409 351L408 350z"/>
<path style="fill:#676f7f; stroke:none;" d="M195.333 351.667L195.667 352.333L195.333 351.667M409 351L410 352L409 351M422 351L423 352L422 351z"/>
<path style="fill:#a9adb6; stroke:none;" d="M31.3333 352.667L31.6667 353.333L31.3333 352.667z"/>
<path style="fill:#676f7f; stroke:none;" d="M117.333 352.667L117.667 353.333L117.333 352.667z"/>
<path style="fill:#a9adb6; stroke:none;" d="M148 352L149 353L148 352M409 352L410 353L409 352M438 352L439 353L438 352M164 353L165 354L164 353M195 353L196 354L195 353z"/>
<path style="fill:#676f7f; stroke:none;" d="M243 353L244 354L243 353z"/>
<path style="fill:#a9adb6; stroke:none;" d="M290 353L291 354L290 353M423 353L424 354L423 353z"/>
<path style="fill:#676f7f; stroke:none;" d="M468 353L469 354L468 353M32 354L33 355L32 354M61 354L62 355L61 354M147 354L148 355L147 354z"/>
<path style="fill:#a9adb6; stroke:none;" d="M243 354L244 355L243 354z"/>
<path style="fill:#676f7f; stroke:none;" d="M260 354L261 355L260 354M410 354L411 355L410 354M423 354L424 355L423 354M439 354L440 355L439 354z"/>
<path style="fill:#a9adb6; stroke:none;" d="M468 354L469 355L468 354M32 355L33 356L32 355z"/>
<path style="fill:#676f7f; stroke:none;" d="M118 355L119 356L118 355z"/>
<path style="fill:#a9adb6; stroke:none;" d="M147 355L148 356L147 355M165 355L166 356L165 355M194 355L195 356L194 355z"/>
<path style="fill:#676f7f; stroke:none;" d="M242 355L243 356L242 355z"/>
<path style="fill:#a9adb6; stroke:none;" d="M289 355L290 356L289 355M410 355L411 356L410 355M439 355L440 356L439 355z"/>
<path style="fill:#676f7f; stroke:none;" d="M467 355L468 356L467 355z"/>
<path style="fill:#a9adb6; stroke:none;" d="M33 356L34 357L33 356M60 356L61 357L60 356z"/>
<path style="fill:#676f7f; stroke:none;" d="M119 356L120 357L119 356z"/>
<path style="fill:#a9adb6; stroke:none;" d="M146 356L147 357L146 356M166 356L167 357L166 356M193 356L194 357L193 356M288 356L289 357L288 356M424 356L425 357L424 356M440 356L441 357L440 356z"/>
<path style="fill:#676f7f; stroke:none;" d="M466 356L467 357L466 356M35 357L36 358L35 357M58 357L59 358L58 357z"/>
<path style="fill:#a9adb6; stroke:none;" d="M120 357L121 358L120 357z"/>
<path style="fill:#676f7f; stroke:none;" d="M144 357L145 358L144 357z"/>
<path style="fill:#a9adb6; stroke:none;" d="M167 357L168 358L167 357z"/>
<path style="fill:#676f7f; stroke:none;" d="M168 357L169 358L168 357M191 357L192 358L191 357z"/>
<path style="fill:#a9adb6; stroke:none;" d="M192 357L193 358L192 357z"/>
<path style="fill:#676f7f; stroke:none;" d="M240 357L241 358L240 357M263 357L264 358L263 357M286 357L287 358L286 357z"/>
<path style="fill:#a9adb6; stroke:none;" d="M287 357L288 358L287 357z"/>
<path style="fill:#676f7f; stroke:none;" d="M411 357L412 358L411 357M424 357L425 358L424 357M442 357L443 358L442 357z"/>
<path style="fill:#a9adb6; stroke:none;" d="M465 357L466 358L465 357M37 358L38 359L37 358z"/>
<path style="fill:#676f7f; stroke:none;" d="M38 358L39 359L38 358M54.6667 358.333L55.3333 358.667L54.6667 358.333z"/>
<path style="fill:#a9adb6; stroke:none;" d="M56 358L57 359L56 358M122 358L123 359L122 358z"/>
<path style="fill:#676f7f; stroke:none;" d="M123.667 358.333L124.333 358.667L123.667 358.333M141 358L142 359L141 358z"/>
<path style="fill:#a9adb6; stroke:none;" d="M142 358L143 359L142 358M169 358L170 359L169 358z"/>
<path style="fill:#676f7f; stroke:none;" d="M170.667 358.333L171.333 358.667L170.667 358.333M188.667 358.333L189.333 358.667L188.667 358.333z"/>
<path style="fill:#a9adb6; stroke:none;" d="M190 358L191 359L190 358z"/>
<path style="fill:#676f7f; stroke:none;" d="M236.667 358.333L237.333 358.667L236.667 358.333z"/>
<path style="fill:#a9adb6; stroke:none;" d="M238 358L239 359L238 358M265 358L266 359L265 358z"/>
<path style="fill:#676f7f; stroke:none;" d="M266.667 358.333L267.333 358.667L266.667 358.333M283.667 358.333L284.333 358.667L283.667 358.333z"/>
<path style="fill:#a9adb6; stroke:none;" d="M285 358L286 359L285 358M411 358L412 359L411 358M425 358L426 359L425 358M444 358L445 359L444 358z"/>
<path style="fill:#676f7f; stroke:none;" d="M445 358L446 359L445 358M461.667 358.333L462.333 358.667L461.667 358.333z"/>
<path style="fill:#a9adb6; stroke:none;" d="M463 358L464 359L463 358z"/>
</svg>
